<?xml version="1.0" standalone="no"?>
<!DOCTYPE svg PUBLIC "-//W3C//DTD SVG 1.1//EN" "http://www.w3.org/Graphics/SVG/1.1/DTD/svg11.dtd" >
<svg xmlns="http://www.w3.org/2000/svg">
<metadata>
Created by FontPrep 20130207 at Tue Dec 12 19:56:50 2017
 By Vasco Silva
 Dutch Design: Albert-Jan Pool, 1995. Published by FontShop International FontFont release 15
</metadata>
<defs>
<font id="2027e760254904bf0a383b6efd34e0f4" horiz-adv-x='1024' >
  <font-face 
    font-family="DIN-Light"
    font-weight="300"
    font-stretch="normal"
    units-per-em="2048"
    panose-1="0 0 0 0 0 0 0 0 0 0"
    ascent="1638"
    descent="-410"
    x-height="987"
    cap-height="1458"
    bbox="-205 -483.008 2251 1997"
    underline-thickness="77"
    underline-position="-250"
    unicode-range="U+0020-FB02"
  />
<missing-glyph horiz-adv-x="2048" 
 />
    <glyph glyph-name=".notdef" horiz-adv-x="2048" 
 />
    <glyph glyph-name=".null" horiz-adv-x="0" 
 />
    <glyph glyph-name="nonmarkingreturn" horiz-adv-x="681" 
 />
    <glyph glyph-name="space" unicode=" " horiz-adv-x="522" 
 />
    <glyph glyph-name="exclam" unicode="!" horiz-adv-x="622" 
d="M410 0h-138v137h138v-137zM397 1458l-6 -1065h-100l-6 1065h112z" />
    <glyph glyph-name="quotedbl" unicode="&#x22;" horiz-adv-x="835" 
d="M324 1139h-129v319h129v-319zM641 1139h-129v319h129v-319z" />
    <glyph glyph-name="numbersign" unicode="#" horiz-adv-x="1308" 
d="M895 895h-358l-52 -313h359zM1204 895h-205l-51 -313h197v-90h-211l-78 -492h-104l79 492h-360l-76 -492h-104l78 492h-197v90h211l51 313h-203v92h215l74 471h107l-76 -471h358l74 471h102l-73 -471h192v-92z" />
    <glyph glyph-name="dollar" unicode="$" horiz-adv-x="1202" 
d="M971 387q0 163 -120 234q-69 38 -138 45q-68 8 -78 10v-588q156 10 246 88t90 211zM244 1076q0 -242 299 -281v579q-141 -10 -220 -90t-79 -208zM1081 392q1 -176 -119 -284t-327 -118v-223h-92v221q-139 6 -241 51t-198 141l78 78q88 -88 169 -126t192 -44v604l-33 4
q-156 20 -266 112t-109 264q0 172 110 278t298 118v183h92v-183q207 -10 373 -155l-72 -72q-135 121 -301 133v-594l59 -10q184 -33 260 -96q127 -105 127 -282z" />
    <glyph glyph-name="percent" unicode="%" horiz-adv-x="1695" 
d="M590 983v211q0 201 -179 201t-180 -201v-211q-1 -199 179 -199t180 199zM1464 264v211q0 201 -179 201t-179 -201v-211q0 -201 179 -201t179 201zM680 979q0 -121 -75 -197t-193 -76t-195 76q-76 76 -76 197v219q0 121 76 198t195 77q120 0 194 -77t74 -198v-219z
M1235 1458l-680 -1458h-92l680 1458h92zM1554 260q0 -121 -74 -198q-74 -76 -194 -76q-118 0 -194 76t-76 198v219q0 121 76 198t194 77t194 -77q75 -77 74 -198v-219z" />
    <glyph glyph-name="ampersand" unicode="&#x26;" horiz-adv-x="1527" 
d="M283 400q0 -134 94 -224t246 -90q207 0 389 162l-443 534q-152 -104 -198 -155q-88 -94 -88 -227zM829 1186q0 74 -54 130t-134 56t-133 -53t-53 -121q-1 -68 29 -124t114 -159l84 58q70 47 109 93q38 46 38 120zM625 -12q-201 0 -327 114t-126 291q0 176 107 284
q57 58 99 90t128 89q-49 59 -79 99q-31 41 -57 103t-26 122q0 122 86 206t211 84t211 -85t86 -207q0 -150 -168 -263q-74 -51 -108 -73l417 -506q49 76 67 150t19 212h109q0 -289 -127 -444l209 -254h-142l-141 172q-190 -184 -448 -184z" />
    <glyph glyph-name="quotesingle" unicode="'" horiz-adv-x="518" 
d="M324 1139h-129v319h129v-319z" />
    <glyph glyph-name="parenleft" unicode="(" horiz-adv-x="581" 
d="M199 162v1134q0 114 35 182t139 173l71 -72q-90 -91 -116 -145t-25 -150v-1110q-1 -96 25 -150t116 -145l-71 -72q-104 104 -139 172t-35 183z" />
    <glyph glyph-name="parenright" unicode=")" horiz-adv-x="581" 
d="M383 162q0 -118 -35 -184t-139 -171l-76 76q90 90 115 141t24 150v1110q0 98 -24 150t-115 141l76 76q104 -104 139 -170t35 -185v-1134z" />
    <glyph glyph-name="asterisk" unicode="*" horiz-adv-x="956" 
d="M809 975l-45 -78l-246 150l6 -289h-92l6 289l-245 -150l-46 78l252 139l-252 139l46 78l245 -149l-6 288h92l-6 -288l246 149l45 -78l-252 -139z" />
    <glyph glyph-name="plus" unicode="+" 
d="M944 492h-369v-371h-96v371h-370v96h370v368h96v-368h369v-96z" />
    <glyph glyph-name="comma" unicode="," horiz-adv-x="528" 
d="M195 139h139v-278l-139 -140v418z" />
    <glyph glyph-name="hyphen" unicode="-" horiz-adv-x="872" 
d="M705 492h-537v96h537v-96z" />
    <glyph glyph-name="period" unicode="." horiz-adv-x="540" 
d="M346 0h-151v152h151v-152z" />
    <glyph glyph-name="slash" unicode="/" horiz-adv-x="692" 
d="M692 1610l-583 -1762h-109l584 1762h108z" />
    <glyph glyph-name="zero" unicode="0" 
d="M805 387v684q0 135 -73 221t-206 86q-134 0 -206 -86t-72 -221v-684q0 -135 73 -221t205 -86t206 86q73 86 73 221zM909 377q1 -170 -107 -280q-108 -109 -276 -109t-276 110t-107 279v704q0 170 108 280q107 109 275 109t276 -110t107 -279v-704z" />
    <glyph glyph-name="one" unicode="1" 
d="M641 0h-104v1339l-265 -233v125l265 227h104v-1458z" />
    <glyph glyph-name="two" unicode="2" 
d="M920 0h-773v92l586 768q82 104 82 232t-75 207q-76 79 -202 79t-205 -72t-79 -219h-104q0 168 103 276q103 107 279 107t282 -104t106 -266t-101 -293l-547 -715h648v-92z" />
    <glyph glyph-name="three" unicode="3" 
d="M915 389q-1 -188 -117 -296q-116 -107 -295 -107t-293 93t-124 275h104q10 -139 98 -208q88 -68 218 -68q129 0 217 84t88 227q0 311 -317 311h-25v93h25q289 0 288 292q0 139 -80 217t-204 78t-200 -70q-75 -70 -89 -196h-105q14 168 124 263t277 95t275 -106t107 -281
q0 -244 -207 -331q235 -80 235 -365z" />
    <glyph glyph-name="four" unicode="4" 
d="M965 240h-195v-240h-104v240h-578v92l537 1126h110l-536 -1126h467v463h104v-463h195v-92z" />
    <glyph glyph-name="five" unicode="5" 
d="M924 477q0 -131 -22 -224t-91 -163q-103 -104 -285 -104t-276 98q-86 86 -98 238h104q33 -244 274 -244q200 0 262 175q22 62 24 107q3 45 3 121q0 273 -129 352q-57 33 -150 33t-164 -40t-93 -113h-93v745h701v-92h-608v-516q94 109 276 108q365 0 365 -481z" />
    <glyph glyph-name="six" unicode="6" 
d="M813 399q0 141 -75 235t-206 93q-130 0 -206 -88q-76 -87 -76 -235t76 -236t204 -88t206 89q77 89 77 230zM541 819q173 1 275 -115t102 -295t-104 -300t-282 -121q-180 0 -283 114t-103 274t81 326l375 756h105l-336 -674q74 35 170 35z" />
    <glyph glyph-name="seven" unicode="7" 
d="M281 1366v-229h-105v321h764v-92l-516 -1366h-107l517 1366h-553z" />
    <glyph glyph-name="eight" unicode="8" 
d="M838 393q0 133 -90 224t-222 91t-221 -90q-90 -92 -90 -225t89 -223t222 -90t223 90q89 90 89 223zM807 1090q0 128 -78 208t-203 80q-124 0 -202 -81t-78 -207t78 -208q78 -81 202 -81t203 81q78 81 78 208zM942 393q0 -174 -119 -290q-119 -115 -297 -115t-297 116
t-118 289q0 242 231 365q-201 109 -201 332q0 164 109 272q108 108 276 108t277 -108t108 -272q0 -225 -198 -332q229 -121 229 -365z" />
    <glyph glyph-name="nine" unicode="9" 
d="M518 731q131 1 208 89t77 234t-77 235t-206 89t-205 -88q-75 -88 -75 -230t73 -236q74 -93 205 -93zM907 1061q0 -139 -82 -305l-374 -756h-105l336 674q-74 -35 -172 -35q-174 0 -274 116t-100 295t102 300q104 120 283 120t283 -113q103 -114 103 -296z" />
    <glyph glyph-name="colon" unicode=":" horiz-adv-x="598" 
d="M403 0h-151v152h151v-152zM403 639h-151v152h151v-152z" />
    <glyph glyph-name="semicolon" unicode=";" horiz-adv-x="598" 
d="M256 139h139v-278l-139 -140v418zM403 639h-151v152h151v-152z" />
    <glyph glyph-name="less" unicode="&#x3c;" horiz-adv-x="2103" 
d="M1987 487h-1678l776 -776h-141l-827 828l827 827h141l-776 -776h1678v-103z" />
    <glyph glyph-name="equal" unicode="=" 
d="M944 334h-835v96h835v-96zM944 647h-835v96h835v-96z" />
    <glyph glyph-name="greater" unicode="&#x3e;" horiz-adv-x="2103" 
d="M117 487v103h1677l-776 776h141l828 -827l-828 -828h-141l776 776h-1677z" />
    <glyph glyph-name="question" unicode="?" horiz-adv-x="999" 
d="M612 0h-137v137h137v-137zM897 1110q0 -113 -90 -244l-174 -256q-37 -53 -37 -123v-96h-104v92q0 98 59 185l172 254q70 104 70 204t-75 176t-190 76q-116 0 -188 -79t-72 -189h-104q0 150 103 255t261 105t264 -103t105 -257z" />
    <glyph glyph-name="at" unicode="@" horiz-adv-x="1427" 
d="M889 909q-176 0 -232 -135q-43 -105 -44 -237q-1 -131 9 -195q26 -174 120 -229q58 -35 146 -35q175 0 232 135q45 109 45 239t-9 193q-25 173 -121 229q-58 35 -146 35zM1270 0h-105v121q-98 -135 -282 -135t-287 133q-88 119 -88 375t80 370q94 137 282 137t295 -139
v182q0 158 -84 244q-86 86 -233 86h-270q-145 0 -232 -86q-47 -47 -65 -100t-19 -144v-722q0 -104 26 -156t101 -109l-72 -71q-96 66 -128 134t-31 202v716q0 193 109 307t292 113h307q178 0 291 -112t113 -308v-1038z" />
    <glyph glyph-name="A" unicode="A" horiz-adv-x="1232" 
d="M922 453l-306 858l-305 -858h611zM1202 0h-119l-127 354h-680l-126 -354h-119l536 1458h99z" />
    <glyph glyph-name="B" unicode="B" horiz-adv-x="1374" 
d="M1096 397q0 139 -90 219t-240 80h-430v-598h430q150 0 240 80t90 219zM1073 1077q0 143 -90 213t-233 70h-414v-565h414q143 -1 233 69t90 213zM1206 397q0 -190 -114 -294q-115 -103 -314 -103h-553v1458h537q186 0 304 -102t118 -279q0 -115 -62 -204t-166 -123
q118 -38 184 -132t66 -221z" />
    <glyph glyph-name="C" unicode="C" horiz-adv-x="1318" 
d="M660 1372q-156 0 -269 -112q-74 -74 -93 -176t-19 -355q0 -252 19 -354t93 -176q113 -113 269 -113t259 88t136 240h108q-35 -197 -169 -312q-134 -114 -338 -114t-353 149q-92 92 -114 204t-21 388q0 276 21 388q22 112 114 204q150 149 355 149q206 0 338 -114
t167 -312h-112q-33 152 -135 240q-100 88 -256 88z" />
    <glyph glyph-name="D" unicode="D" horiz-adv-x="1388" 
d="M1110 750q0 242 -26 340q-72 270 -396 270h-352v-1262h352q203 0 313 113q51 51 77 153t29 170q3 70 3 138v78zM1163 1207q58 -122 58 -470t-59 -481q-32 -72 -83 -123q-133 -133 -364 -133h-490v1458h490q231 0 364 -133q53 -53 84 -118z" />
    <glyph glyph-name="E" unicode="E" horiz-adv-x="1224" 
d="M1110 0h-885v1458h885v-98h-774v-576h659v-98h-659v-588h774v-98z" />
    <glyph glyph-name="F" unicode="F" horiz-adv-x="1179" 
d="M1110 1360h-774v-600h659v-98h-659v-662h-111v1458h885v-98z" />
    <glyph glyph-name="G" unicode="G" horiz-adv-x="1333" 
d="M1169 508q0 -225 -118 -352q-152 -168 -375 -168t-373 149q-92 92 -114 204t-21 388q0 276 21 388q22 112 114 204q150 149 354 149q203 0 339 -116t169 -310h-110q-33 152 -136 240t-259 88t-269 -112q-74 -74 -93 -176t-19 -355q0 -252 19 -354t93 -176
q113 -113 288 -113t292 141q88 109 88 289v131h-391v98h501v-237z" />
    <glyph glyph-name="H" unicode="H" horiz-adv-x="1431" 
d="M1206 0h-110v686h-760v-686h-111v1458h111v-674h760v674h110v-1458z" />
    <glyph glyph-name="I" unicode="I" horiz-adv-x="561" 
d="M336 0h-111v1458h111v-1458z" />
    <glyph glyph-name="J" unicode="J" horiz-adv-x="1019" 
d="M815 430q0 -202 -119 -322q-118 -120 -314 -120t-321 125l76 75q51 -50 103 -76t141 -26q156 0 240 95t84 272v1005h110v-1028z" />
    <glyph glyph-name="K" unicode="K" horiz-adv-x="1320" 
d="M336 0h-111v1458h111v-911l739 911h133l-450 -557l526 -901h-131l-469 817l-348 -422v-395z" />
    <glyph glyph-name="L" unicode="L" horiz-adv-x="1171" 
d="M1110 0h-885v1458h111v-1360h774v-98z" />
    <glyph glyph-name="M" unicode="M" horiz-adv-x="1675" 
d="M1450 0h-111v1202l-442 -997h-111l-450 997v-1202h-111v1458h111l508 -1124l495 1124h111v-1458z" />
    <glyph glyph-name="N" unicode="N" horiz-adv-x="1513" 
d="M1288 0h-110l-842 1268v-1268h-111v1458h111l842 -1263v1263h110v-1458z" />
    <glyph glyph-name="O" unicode="O" horiz-adv-x="1335" 
d="M1057 729q0 252 -20 354q-19 102 -93 177q-112 112 -276 112t-277 -112q-74 -74 -93 -176t-19 -355q0 -252 19 -354t93 -176q113 -113 277 -113t276 113q74 74 93 176q20 102 20 354zM1167 729q1 -276 -21 -388t-114 -204q-150 -149 -364 -149t-365 149q-92 92 -114 204
t-21 388q0 276 21 388q22 112 114 204q150 149 365 149t364 -149q92 -92 114 -204t21 -388z" />
    <glyph glyph-name="P" unicode="P" horiz-adv-x="1292" 
d="M1090 1038q0 160 -94 241t-248 81h-412v-643h412q156 1 249 81t93 240zM1200 1038q0 -196 -123 -308t-317 -112h-424v-618h-111v1458h535q196 0 318 -112t122 -308z" />
    <glyph glyph-name="Q" unicode="Q" horiz-adv-x="1333" 
d="M1057 746q0 234 -20 337q-19 102 -93 177q-112 112 -276 112t-277 -112q-74 -74 -93 -176t-19 -355q0 -252 19 -354t93 -176q113 -113 265 -113t259 86l-204 205l73 74l203 -203q45 66 57 165q13 99 13 333zM1235 0l-74 -74l-172 172q-139 -111 -321 -110
q-215 0 -365 149q-92 92 -114 204t-21 388q0 276 21 388q22 112 114 204q150 149 365 149t364 -149q92 -92 114 -204t22 -378q0 -267 -17 -375q-16 -108 -88 -192z" />
    <glyph glyph-name="R" unicode="R" horiz-adv-x="1345" 
d="M1087 1065q0 145 -88 220t-233 75h-430v-590h430q145 0 233 75t88 220zM336 672v-672h-111v1458h555q184 0 301 -103t117 -275t-90 -276q-90 -103 -246 -130l352 -674h-129l-348 672h-401z" />
    <glyph glyph-name="S" unicode="S" horiz-adv-x="1202" 
d="M1081 388q0 -181 -132 -291t-359 -109q-160 0 -272 45t-214 147l78 78q96 -96 188 -134t246 -38t254 80t100 217t-79 209q-39 33 -80 48t-131 30l-170 26q-166 25 -260 107q-115 96 -115 273t122 286t331 108q131 0 227 -36t193 -121l-72 -72q-76 67 -155 101t-218 34
t-229 -81t-90 -214t80 -199t213 -87l157 -25q176 -27 260 -96q127 -105 127 -286z" />
    <glyph glyph-name="T" unicode="T" horiz-adv-x="1103" 
d="M1042 1360h-436v-1360h-110v1360h-435v98h981v-98z" />
    <glyph glyph-name="U" unicode="U" horiz-adv-x="1409" 
d="M1204 473q0 -213 -140 -349t-359 -136t-360 136q-140 136 -140 349v985h110v-971q1 -181 107 -291t282 -110t283 111q106 111 107 290v971h110v-985z" />
    <glyph glyph-name="V" unicode="V" horiz-adv-x="1093" 
d="M1073 1458l-479 -1458h-94l-480 1458h117l410 -1263l409 1263h117z" />
    <glyph glyph-name="W" unicode="W" horiz-adv-x="1724" 
d="M1683 1458l-364 -1458h-113l-344 1270l-344 -1270h-112l-365 1458h117l307 -1268l340 1268h115l340 -1268l307 1268h116z" />
    <glyph glyph-name="X" unicode="X" horiz-adv-x="1089" 
d="M1053 0h-129l-381 649l-381 -649h-125l446 748l-417 710h129l348 -612l350 612h127l-418 -710z" />
    <glyph glyph-name="Y" unicode="Y" horiz-adv-x="1011" 
d="M561 0h-110v604l-431 854h119l371 -737l362 737h119l-430 -854v-604z" />
    <glyph glyph-name="Z" unicode="Z" horiz-adv-x="1144" 
d="M1016 0h-887v117l768 1243h-737v98h856v-98l-774 -1262h774v-98z" />
    <glyph glyph-name="bracketleft" unicode="[" horiz-adv-x="593" 
d="M502 -152h-303v1762h303v-92h-199v-1577h199v-93z" />
    <glyph glyph-name="backslash" unicode="\" horiz-adv-x="692" 
d="M692 -152h-108l-584 1762h109z" />
    <glyph glyph-name="bracketright" unicode="]" horiz-adv-x="593" 
d="M395 -152h-303v86h205v1590h-205v86h303v-1762z" />
    <glyph glyph-name="asciicircum" unicode="^" 
d="M897 864h-104l-267 496l-266 -496h-104l323 606h94z" />
    <glyph glyph-name="underscore" unicode="_" 
d="M1053 -328h-1053v78h1053v-78z" />
    <glyph glyph-name="grave" unicode="`" horiz-adv-x="1024" 
d="M608 1208h-119l-217 301h138z" />
    <glyph glyph-name="a" unicode="a" horiz-adv-x="1073" 
d="M778 344v127h-307q-252 0 -252 -199q1 -98 63 -145t212 -47t229 76q55 53 55 188zM778 666q0 241 -256 241q-126 -1 -186 -29t-109 -96l-75 66q61 84 142 118t206 33q383 0 383 -323v-676h-105v98q-61 -61 -128 -86t-173 -24q-203 0 -283 83t-80 209t92 200q91 75 253 75
h319v111z" />
    <glyph glyph-name="b" unicode="b" horiz-adv-x="1105" 
d="M860 494q0 88 -10 154t-38 128q-28 63 -86 97t-144 34q-173 0 -231 -131q-48 -108 -48 -282q0 -301 134 -380q59 -34 145 -34t144 34t86 97t38 129t10 154zM596 999q369 0 369 -505q0 -293 -127 -420q-86 -86 -242 -86q-188 0 -293 139v-127h-104v1458h104v-598
q104 139 293 139z" />
    <glyph glyph-name="c" unicode="c" horiz-adv-x="1009" 
d="M141 494q0 236 117 370t317 135q101 -1 175 -33t151 -118l-72 -66q-63 70 -118 98t-136 27q-172 0 -262 -131q-67 -98 -67 -282t67 -283q90 -131 262 -131q79 0 135 28t119 97l72 -66q-79 -86 -151 -119t-175 -32q-201 0 -317 135t-117 371z" />
    <glyph glyph-name="d" unicode="d" horiz-adv-x="1105" 
d="M755 776q-59 131 -231 131t-230 -131q-48 -108 -48 -282q0 -301 134 -380q58 -34 144 -34q173 0 231 131q48 109 48 283t-48 282zM141 494q0 505 369 505q188 0 293 -139v598h104v-1458h-104v127q-104 -139 -293 -139q-156 0 -242 86q-127 127 -127 420z" />
    <glyph glyph-name="e" unicode="e" horiz-adv-x="1071" 
d="M536 907q-84 0 -153 -45q-129 -83 -137 -307h581q-3 111 -35 187t-102 120q-70 45 -154 45zM932 471h-686q0 -189 83 -289t238 -100q85 0 147 28t126 91l78 -62q-80 -79 -160 -115t-197 -36q-205 0 -313 129t-107 372t105 377t290 133q186 0 290 -128q105 -128 106 -353
v-47z" />
    <glyph glyph-name="f" unicode="f" horiz-adv-x="622" 
d="M557 909h-223v-909h-105v909h-135v78h135v213q1 117 63 188t175 70h90v-92h-72q-152 0 -151 -164v-215h223v-78z" />
    <glyph glyph-name="g" unicode="g" horiz-adv-x="1105" 
d="M755 776q-59 131 -231 131t-230 -131q-48 -108 -48 -282q0 -301 134 -380q58 -34 144 -34q173 0 231 131q48 109 48 283t-48 282zM141 494q0 505 369 505q188 0 293 -139v127h104v-1042q0 -190 -107 -310q-108 -119 -296 -118q-106 1 -175 29t-151 102l70 69
q66 -59 118 -84t138 -24q150 0 224 94t75 248v176q-104 -139 -293 -139q-156 0 -242 86q-127 127 -127 420z" />
    <glyph glyph-name="h" unicode="h" horiz-adv-x="1144" 
d="M958 0h-104v612q0 143 -71 219t-201 76t-205 -78q-74 -78 -74 -217v-612h-104v1458h104v-588q111 129 285 129t272 -99t98 -269v-631z" />
    <glyph glyph-name="i" unicode="i" horiz-adv-x="501" 
d="M303 0h-104v987h104v-987zM315 1329h-129v129h129v-129z" />
    <glyph glyph-name="j" unicode="j" horiz-adv-x="501" 
d="M303 -215q0 -119 -60 -187t-177 -69h-91v92h72q84 0 118 40t34 126v1200h104v-1202zM315 1329h-129v129h129v-129z" />
    <glyph glyph-name="k" unicode="k" horiz-adv-x="1079" 
d="M303 0h-104v1458h104v-1028l490 557h133l-326 -369l397 -618h-129l-340 543l-225 -260v-283z" />
    <glyph glyph-name="l" unicode="l" horiz-adv-x="587" 
d="M522 0h-90q-117 0 -177 69t-60 187v1202h104v-1200q0 -86 34 -126t118 -40h71v-92z" />
    <glyph glyph-name="m" unicode="m" horiz-adv-x="1798" 
d="M1612 0h-103v612q0 143 -70 219q-71 76 -200 76q-129 -1 -205 -75t-76 -201v-631h-104v612q0 143 -71 219t-201 76t-205 -78q-74 -78 -74 -217v-612h-104v987h104v-117q111 129 293 129q225 0 317 -180q115 180 336 180q162 0 262 -96t101 -272v-631z" />
    <glyph glyph-name="n" unicode="n" horiz-adv-x="1144" 
d="M958 0h-104v612q0 143 -71 219t-201 76t-205 -78q-74 -78 -74 -217v-612h-104v987h104v-117q111 129 283 129t272 -96t100 -272v-631z" />
    <glyph glyph-name="o" unicode="o" horiz-adv-x="1077" 
d="M831 494q0 242 -86 328q-87 86 -207 85q-120 0 -206 -86q-86 -85 -86 -327t86 -328t207 -86t207 86t85 328zM936 494q0 -274 -116 -390t-282 -116t-281 116q-116 116 -116 390t116 390t282 116q165 0 281 -116t116 -390z" />
    <glyph glyph-name="p" unicode="p" horiz-adv-x="1105" 
d="M860 494q0 88 -10 154t-38 128q-28 63 -86 97t-144 34q-173 0 -231 -131q-48 -108 -48 -282q0 -301 134 -380q59 -34 145 -34t144 34t86 97t38 129t10 154zM596 999q369 0 369 -505q0 -293 -127 -420q-86 -86 -242 -86q-188 0 -293 139v-598h-104v1458h104v-127
q104 139 293 139z" />
    <glyph glyph-name="q" unicode="q" horiz-adv-x="1105" 
d="M755 776q-59 131 -231 131t-230 -131q-48 -108 -48 -282q0 -301 134 -380q58 -34 144 -34q173 0 231 131q48 109 48 283t-48 282zM141 494q0 505 369 505q188 0 293 -139v127h104v-1458h-104v598q-104 -139 -293 -139q-156 0 -242 86q-127 127 -127 420z" />
    <glyph glyph-name="r" unicode="r" horiz-adv-x="837" 
d="M567 907q-123 0 -193 -87t-71 -212v-608h-104v987h104v-131q43 68 121 106t168 37q143 0 237 -94l-75 -76q-45 45 -85 61t-102 17z" />
    <glyph glyph-name="s" unicode="s" horiz-adv-x="1011" 
d="M897 280q0 -134 -106 -213t-289 -79q-252 0 -400 141l72 72q115 -121 324 -121q297 0 297 201q0 75 -46 115t-143 50l-164 15q-297 25 -297 258q1 127 97 204t258 76q209 0 346 -104l-70 -70q-115 84 -256 84t-207 -50q-65 -50 -65 -134t48 -124t153 -48l159 -14
q139 -13 214 -69t75 -190z" />
    <glyph glyph-name="t" unicode="t" horiz-adv-x="665" 
d="M551 0h-90q-113 0 -175 71t-63 187v651h-135v78h135v316h105v-316h223v-78h-223v-653q0 -164 151 -164h72v-92z" />
    <glyph glyph-name="u" unicode="u" horiz-adv-x="1144" 
d="M946 0h-104v117q-111 -129 -283 -129t-272 96t-101 272v631h105v-612q1 -143 71 -219t201 -76t205 78t74 217v612h104v-987z" />
    <glyph glyph-name="v" unicode="v" horiz-adv-x="880" 
d="M852 987l-360 -987h-103l-360 987h114l297 -864l297 864h115z" />
    <glyph glyph-name="w" unicode="w" horiz-adv-x="1458" 
d="M1430 987l-316 -987h-106l-279 823l-278 -823h-107l-315 987h114l252 -864l283 864h102l283 -864l252 864h115z" />
    <glyph glyph-name="x" unicode="x" horiz-adv-x="942" 
d="M860 0h-127l-260 416l-264 -416h-127l334 504l-320 483h127l250 -397l246 397h127l-320 -483z" />
    <glyph glyph-name="y" unicode="y" horiz-adv-x="880" 
d="M139 -446h-49v92h39q80 0 116 28t64 107l80 219l-360 987h114l297 -864l297 864h115l-459 -1255q-29 -80 -67 -115q-66 -63 -187 -63z" />
    <glyph glyph-name="z" unicode="z" horiz-adv-x="925" 
d="M815 0h-704v98l594 797h-562v92h672v-98l-596 -797h596v-92z" />
    <glyph glyph-name="braceleft" unicode="{" horiz-adv-x="647" 
d="M545 -152h-29q-144 0 -198 54t-54 196v424q0 86 -38 124t-87 38h-37v90h37q49 0 87 38t38 124v424q0 141 54 195t198 55h29v-92h-27q-94 0 -122 -29t-27 -131v-424q0 -78 -30 -125t-95 -80q66 -33 96 -80t29 -125v-424q-1 -102 27 -131t122 -28h27v-93z" />
    <glyph glyph-name="bar" unicode="|" horiz-adv-x="649" 
d="M377 -152h-105v1762h105v-1762z" />
    <glyph glyph-name="braceright" unicode="}" horiz-adv-x="647" 
d="M545 684h-37q-49 0 -87 -38t-38 -124v-424q0 -141 -54 -195t-198 -55h-29v93h27q94 1 122 29t28 130v424q0 78 29 125q30 47 95 80q-65 33 -95 80t-29 125v424q0 102 -28 131t-122 29h-27v92h29q143 0 197 -54t55 -196v-424q0 -86 38 -124t87 -38h37v-90z" />
    <glyph glyph-name="asciitilde" unicode="~" 
d="M710 440q-60 0 -192 56t-176 55q-45 0 -78 -16t-92 -76l-63 63q80 80 127 104t107 24q59 0 191 -56q132 -55 177 -55t77 16t93 76l63 -64q-80 -79 -127 -103t-107 -24z" />
    <glyph glyph-name="nbspace" unicode="&#xa0;" horiz-adv-x="522" 
 />
    <glyph glyph-name="exclamdown" unicode="&#xa1;" horiz-adv-x="622" 
d="M338 -471h-113l6 1065h101zM350 850h-137v137h137v-137z" />
    <glyph glyph-name="cent" unicode="&#xa2;" horiz-adv-x="1019" 
d="M510 342v815q-125 -23 -195 -123q-69 -100 -69 -284t70 -284t194 -124zM598 0h-88v248q-172 22 -270 154t-98 348t98 347q98 132 270 154v207h88v-203q94 -5 162 -37t141 -114l-72 -66q-57 66 -109 94t-122 31v-827q70 4 122 32t109 93l72 -66q-73 -83 -141 -115
t-162 -36v-244z" />
    <glyph glyph-name="sterling" unicode="&#xa3;" horiz-adv-x="1099" 
d="M987 0h-754v700h-131v78h131v250q0 201 119 322q119 120 315 120t320 -124l-76 -76q-51 51 -103 77t-140 25q-156 0 -240 -95t-84 -271v-228h324v-78h-324v-602h643v-98z" />
    <glyph glyph-name="currency" unicode="&#xa4;" horiz-adv-x="1345" 
d="M1018 543q0 145 -102 245t-244 100t-244 -100t-102 -245t101 -245t245 -101q144 1 244 101q102 100 102 245zM672 987q162 0 280 -96l154 149l65 -65l-151 -150q96 -119 96 -281t-96 -282l151 -151l-65 -66l-154 152q-120 -99 -280 -99t-281 99l-151 -152l-66 66l152 151
q-98 121 -98 282t98 281l-152 150l66 65l151 -149q119 96 281 96z" />
    <glyph glyph-name="yen" unicode="&#xa5;" horiz-adv-x="1009" 
d="M877 791v-78h-261l-55 -109v-108h316v-78h-316v-418h-110v418h-318v78h318v108l-56 109h-262v78h223l-336 667h117l371 -739l366 739h115l-334 -667h222z" />
    <glyph glyph-name="brokenbar" unicode="&#xa6;" horiz-adv-x="671" 
d="M377 -152h-105v717h105v-717zM377 893h-105v717h105v-717z" />
    <glyph glyph-name="section" unicode="&#xa7;" horiz-adv-x="1159" 
d="M580 215q122 0 196 81t74 213t-78 210t-196 78t-192 -81q-75 -81 -75 -210t75 -210t196 -81zM961 511q1 -128 -63 -218t-163 -135q95 -33 153 -112t58 -187q0 -150 -102 -246t-261 -96t-265 85q-105 85 -115 232h110q20 -219 267 -219q120 0 188 63t68 163t-52 161
t-141 86l-170 47q-129 37 -202 137t-73 228t64 219q63 90 162 135q-203 88 -203 289q-1 151 103 239t255 88t254 -82t111 -227h-108q-20 213 -256 213q-117 0 -184 -58t-66 -173q0 -168 186 -219l170 -47q127 -35 201 -137t74 -229z" />
    <glyph glyph-name="dieresis" unicode="&#xa8;" horiz-adv-x="1024" 
d="M358 1229h-118v157h118v-157zM784 1229h-118v157h118v-157z" />
    <glyph glyph-name="copyright" unicode="&#xa9;" horiz-adv-x="1830" 
d="M561 729q0 184 92 304t271 120q84 0 142 -25t126 -84l-62 -61q-96 86 -206 86q-142 0 -206 -94t-65 -246q0 -338 271 -338q113 0 206 84l62 -61q-118 -106 -282 -106t-257 118q-92 119 -92 303zM1559 729q1 264 -189 458q-190 193 -454 193t-454 -194t-190 -457
q0 -264 190 -458q190 -193 453 -193q264 0 454 194t190 457zM1657 729q0 -307 -217 -524q-216 -217 -524 -217t-525 217t-217 524t217 524t524 217t525 -217t217 -524z" />
    <glyph glyph-name="ordfeminine" unicode="&#xaa;" horiz-adv-x="915" 
d="M641 944v96h-238q-195 0 -194 -153q0 -76 47 -112t166 -36t178 58q41 38 41 147zM641 1198q-1 186 -199 186q-98 0 -145 -22t-84 -76l-66 55q49 70 115 97t164 26q303 0 303 -258v-536h-88v73q-85 -84 -239 -84t-224 72q-57 57 -57 159t73 162t199 60h248v86z" />
    <glyph glyph-name="guillemotleft" unicode="&#xab;" horiz-adv-x="1079" 
d="M487 141l-401 402l401 401v-135l-266 -266l266 -267v-135zM911 141l-401 402l401 401v-135l-266 -266l266 -267v-135z" />
    <glyph glyph-name="logicalnot" unicode="&#xac;" 
d="M944 219h-96v273h-739v96h835v-369z" />
    <glyph glyph-name="registered" unicode="&#xae;" horiz-adv-x="1830" 
d="M1106 899q0 68 -49 113t-123 45h-160v-314h160q74 0 123 44t49 112zM774 662v-343h-92v822h262q102 0 178 -70t76 -165q0 -182 -186 -236l207 -351h-107l-203 343h-135zM1561 729q-1 266 -191 460q-190 193 -454 193t-455 -194t-191 -459q0 -266 190 -460
q190 -193 455 -193q264 0 455 194t191 459zM1657 729q0 -307 -217 -524q-216 -217 -524 -217t-525 217t-217 524t217 524t524 217t525 -217t217 -524z" />
    <glyph glyph-name="macron" unicode="&#xaf;" horiz-adv-x="1024" 
d="M815 1245h-606v94h606v-94z" />
    <glyph glyph-name="degree" unicode="&#xb0;" horiz-adv-x="937" 
d="M698 1151q0 100 -66 168q-67 67 -165 67t-163 -66q-64 -66 -64 -168q0 -101 66 -169t163 -68q98 0 164 68q65 68 65 168zM791 1151q-1 -133 -95 -227t-227 -94t-227 94t-95 227q1 133 95 227t227 94t227 -94t95 -227z" />
    <glyph glyph-name="plusminus" unicode="&#xb1;" 
d="M944 0h-835v96h835v-96zM944 553h-369v-373h-96v373h-370v96h370v371h96v-371h369v-96z" />
    <glyph glyph-name="twosuperior" unicode="&#xb2;" horiz-adv-x="688" 
d="M586 584h-484v82l344 436q48 61 48 130q0 68 -40 110t-108 42t-110 -38t-43 -117h-91q0 106 66 172q66 65 176 65t176 -64t66 -164q0 -99 -70 -187l-305 -385h375v-82z" />
    <glyph glyph-name="threesuperior" unicode="&#xb3;" horiz-adv-x="720" 
d="M618 823q0 -117 -72 -183t-183 -67q-113 -1 -185 59t-76 175h93q4 -76 51 -114q48 -38 118 -38t117 45t47 123q0 166 -172 166h-16v80h16q156 0 156 158q0 77 -43 117t-110 40t-107 -38t-47 -105h-90q8 104 75 165q68 60 174 60t172 -66q67 -66 66 -171q0 -143 -117 -195
q133 -49 133 -211z" />
    <glyph glyph-name="acute" unicode="&#xb4;" horiz-adv-x="1024" 
d="M752 1509l-217 -301h-119l198 301h138z" />
    <glyph glyph-name="mu" unicode="&#xb5;" horiz-adv-x="1138" 
d="M940 0h-104v117q-111 -129 -282 -129t-269 92v-551h-105v1458h105v-612q1 -143 71 -219t201 -76t205 78t74 217v612h104v-987z" />
    <glyph glyph-name="paragraph" unicode="&#xb6;" horiz-adv-x="1185" 
d="M961 -471h-105v1831h-252v-1831h-104v1151q-186 0 -297 117t-111 275t116 272t316 114h437v-1929z" />
    <glyph glyph-name="periodcentered" unicode="&#xb7;" horiz-adv-x="540" 
d="M346 465h-151v151h151v-151z" />
    <glyph glyph-name="cedilla" unicode="&#xb8;" horiz-adv-x="1024" 
d="M631 -143l-131 -308h-129l147 308h113z" />
    <glyph glyph-name="onesuperior" unicode="&#xb9;" horiz-adv-x="509" 
d="M346 584h-90v774l-164 -146v105l164 141h90v-874z" />
    <glyph glyph-name="ordmasculine" unicode="&#xba;" horiz-adv-x="925" 
d="M690 1063q0 188 -66 255q-66 66 -161 66q-94 0 -161 -66q-66 -66 -66 -255q0 -188 66 -255t161 -67t161 67t66 255zM778 1063q0 -217 -92 -309t-223 -92t-223 92t-93 309q1 217 93 309t223 92t223 -92t92 -309z" />
    <glyph glyph-name="guillemotright" unicode="&#xbb;" horiz-adv-x="1079" 
d="M569 543l-401 -402v135l266 267l-266 266v135zM993 543l-401 -402v135l266 267l-266 266v135z" />
    <glyph glyph-name="onequarter" unicode="&#xbc;" horiz-adv-x="1548" 
d="M346 584h-90v774l-164 -146v105l164 141h90v-874zM1116 1458l-680 -1458h-92l680 1458h92zM1466 137h-106v-137h-90v137h-348v82l315 655h96l-313 -655h250v246h90v-246h106v-82z" />
    <glyph glyph-name="onehalf" unicode="&#xbd;" horiz-adv-x="1564" 
d="M346 584h-90v774l-164 -146v105l164 141h90v-874zM1085 1458l-679 -1458h-93l680 1458h92zM1462 0h-483v82l344 436q47 61 47 130t-40 111t-108 42t-110 -38q-43 -38 -43 -118h-90q0 104 65 171q66 67 176 67t176 -65t66 -163t-69 -188l-306 -385h375v-82z" />
    <glyph glyph-name="threequarters" unicode="&#xbe;" horiz-adv-x="1650" 
d="M618 823q0 -117 -72 -183t-183 -67q-113 -1 -185 59t-76 175h93q4 -76 51 -114q48 -38 118 -38t117 45t47 123q0 166 -172 166h-16v80h16q156 0 156 158q0 77 -43 117t-110 40t-107 -38t-47 -105h-90q8 104 75 165q68 60 174 60t172 -66q67 -66 66 -171q0 -143 -117 -195
q133 -49 133 -211zM1239 1458l-680 -1458h-92l680 1458h92zM1569 137h-107v-137h-90v137h-348v82l315 655h97l-314 -655h250v246h90v-246h107v-82z" />
    <glyph glyph-name="questiondown" unicode="&#xbf;" horiz-adv-x="999" 
d="M836 -123q0 -150 -104 -255t-261 -105q-158 0 -263 103t-106 257q0 113 91 244l174 256q37 53 36 123v96h105v-92q0 -98 -59 -185l-173 -253q-70 -104 -70 -204t76 -176t190 -77q114 0 186 79t73 189h105zM524 850h-137v137h137v-137z" />
    <glyph glyph-name="Agrave" unicode="&#xc0;" horiz-adv-x="1232" 
d="M713 1597h-119l-217 301h137zM922 453l-306 858l-305 -858h611zM1202 0h-119l-127 354h-680l-126 -354h-119l536 1458h99z" />
    <glyph glyph-name="Aacute" unicode="&#xc1;" horiz-adv-x="1232" 
d="M856 1898l-217 -301h-119l199 301h137zM922 453l-306 858l-305 -858h611zM1202 0h-119l-127 354h-680l-126 -354h-119l536 1458h99z" />
    <glyph glyph-name="Acircumflex" unicode="&#xc2;" horiz-adv-x="1232" 
d="M924 1597h-117l-191 224l-190 -224h-117l252 301h111zM922 453l-306 858l-305 -858h611zM1202 0h-119l-127 354h-680l-126 -354h-119l536 1458h99z" />
    <glyph glyph-name="Atilde" unicode="&#xc3;" horiz-adv-x="1232" 
d="M739 1628q-57 0 -136 46t-126 46t-115 -67l-61 59q97 98 171 98t148 -46t124 -46q48 0 116 68l62 -60q-98 -98 -183 -98zM922 453l-306 858l-305 -858h611zM1202 0h-119l-127 354h-680l-126 -354h-119l536 1458h99z" />
    <glyph glyph-name="Adieresis" unicode="&#xc4;" horiz-adv-x="1232" 
d="M463 1618h-119v158h119v-158zM889 1618h-119v158h119v-158zM922 453l-306 858l-305 -858h611zM1202 0h-119l-127 354h-680l-126 -354h-119l536 1458h99z" />
    <glyph glyph-name="Aring" unicode="&#xc5;" horiz-adv-x="1232" 
d="M766 1763q0 61 -44 105t-106 43q-62 0 -105 -43q-44 -42 -44 -104t44 -106t105 -44t106 44q44 44 44 105zM850 1763q0 -96 -69 -166q-69 -69 -165 -69t-164 70t-69 165q0 96 69 165q68 69 164 69t165 -69t69 -165zM922 453l-306 858l-305 -858h611zM1202 0h-119l-127 354
h-680l-126 -354h-119l536 1458h99z" />
    <glyph glyph-name="AE" unicode="&#xc6;" horiz-adv-x="1845" 
d="M848 453v907l-475 -907h475zM1731 0h-883v354h-522l-185 -354h-121l773 1458h938v-98h-775v-582h660v-98h-660v-582h775v-98z" />
    <glyph glyph-name="Ccedilla" unicode="&#xc7;" horiz-adv-x="1318" 
d="M750 -143l-132 -308h-129l148 308h113zM660 1372q-156 0 -269 -112q-74 -74 -93 -176t-19 -355q0 -252 19 -354t93 -176q113 -113 269 -113t259 88t136 240h108q-35 -197 -169 -312q-134 -114 -338 -114t-353 149q-92 92 -114 204t-21 388q0 276 21 388q22 112 114 204
q150 149 355 149q206 0 338 -114t167 -312h-112q-33 152 -135 240q-100 88 -256 88z" />
    <glyph glyph-name="Egrave" unicode="&#xc8;" horiz-adv-x="1224" 
d="M739 1597h-118l-218 301h138zM1110 0h-885v1458h885v-98h-774v-576h659v-98h-659v-588h774v-98z" />
    <glyph glyph-name="Eacute" unicode="&#xc9;" horiz-adv-x="1224" 
d="M883 1898l-217 -301h-119l198 301h138zM1110 0h-885v1458h885v-98h-774v-576h659v-98h-659v-588h774v-98z" />
    <glyph glyph-name="Ecircumflex" unicode="&#xca;" horiz-adv-x="1224" 
d="M950 1597h-116l-191 224l-190 -224h-117l252 301h110zM1110 0h-885v1458h885v-98h-774v-576h659v-98h-659v-588h774v-98z" />
    <glyph glyph-name="Edieresis" unicode="&#xcb;" horiz-adv-x="1224" 
d="M489 1618h-118v158h118v-158zM915 1618h-118v158h118v-158zM1110 0h-885v1458h885v-98h-774v-576h659v-98h-659v-588h774v-98z" />
    <glyph glyph-name="Igrave" unicode="&#xcc;" horiz-adv-x="561" 
d="M561 1597h-119l-217 301h137zM336 0h-111v1458h111v-1458z" />
    <glyph glyph-name="Iacute" unicode="&#xcd;" horiz-adv-x="561" 
d="M561 1898l-217 -301h-119l199 301h137zM336 0h-111v1458h111v-1458z" />
    <glyph glyph-name="Icircumflex" unicode="&#xce;" horiz-adv-x="561" 
d="M840 1597h-117l-191 224l-190 -224h-117l252 301h111zM336 0h-111v1458h111v-1458z" />
    <glyph glyph-name="Idieresis" unicode="&#xcf;" horiz-adv-x="561" 
d="M344 1618h-119v158h119v-158zM770 1618h-119v158h119v-158zM336 0h-111v1458h111v-1458z" />
    <glyph glyph-name="Eth" unicode="&#xd0;" horiz-adv-x="1411" 
d="M1133 718q0 230 -13 318q-12 88 -69 164q-121 162 -340 162h-353v-584h365v-86h-365v-596h353q242 0 352 166q49 72 59 149q11 77 11 307zM1243 725q0 -250 -15 -334t-63 -160q-147 -231 -440 -231h-477v692h-166v86h166v680h491q289 0 426 -235q51 -90 65 -169t13 -329z
" />
    <glyph glyph-name="Ntilde" unicode="&#xd1;" horiz-adv-x="1513" 
d="M881 1628q-57 0 -137 46t-126 46t-114 -67l-62 59q98 98 172 98t148 -46t123 -46t116 68l62 -60q-98 -98 -182 -98zM1288 0h-110l-842 1268v-1268h-111v1458h111l842 -1263v1263h110v-1458z" />
    <glyph glyph-name="Ograve" unicode="&#xd2;" horiz-adv-x="1335" 
d="M764 1597h-119l-217 301h137zM1057 729q0 252 -20 354q-19 102 -93 177q-112 112 -276 112t-277 -112q-74 -74 -93 -176t-19 -355q0 -252 19 -354t93 -176q113 -113 277 -113t276 113q74 74 93 176q20 102 20 354zM1167 729q1 -276 -21 -388t-114 -204
q-150 -149 -364 -149t-365 149q-92 92 -114 204t-21 388q0 276 21 388q22 112 114 204q150 149 365 149t364 -149q92 -92 114 -204t21 -388z" />
    <glyph glyph-name="Oacute" unicode="&#xd3;" horiz-adv-x="1335" 
d="M907 1898l-217 -301h-119l199 301h137zM1057 729q0 252 -20 354q-19 102 -93 177q-112 112 -276 112t-277 -112q-74 -74 -93 -176t-19 -355q0 -252 19 -354t93 -176q113 -113 277 -113t276 113q74 74 93 176q20 102 20 354zM1167 729q1 -276 -21 -388t-114 -204
q-150 -149 -364 -149t-365 149q-92 92 -114 204t-21 388q0 276 21 388q22 112 114 204q150 149 365 149t364 -149q92 -92 114 -204t21 -388z" />
    <glyph glyph-name="Ocircumflex" unicode="&#xd4;" horiz-adv-x="1335" 
d="M975 1597h-117l-190 224l-191 -224h-117l252 301h111zM1057 729q0 252 -20 354q-19 102 -93 177q-112 112 -276 112t-277 -112q-74 -74 -93 -176t-19 -355q0 -252 19 -354t93 -176q113 -113 277 -113t276 113q74 74 93 176q20 102 20 354zM1167 729q1 -276 -21 -388
t-114 -204q-150 -149 -364 -149t-365 149q-92 92 -114 204t-21 388q0 276 21 388q22 112 114 204q150 149 365 149t364 -149q92 -92 114 -204t21 -388z" />
    <glyph glyph-name="Otilde" unicode="&#xd5;" horiz-adv-x="1335" 
d="M791 1628q-57 0 -137 46t-126 46t-114 -67l-62 59q98 98 172 98t148 -46t123 -46t116 68l62 -60q-98 -98 -182 -98zM1057 729q0 252 -20 354q-19 102 -93 177q-112 112 -276 112t-277 -112q-74 -74 -93 -176t-19 -355q0 -252 19 -354t93 -176q113 -113 277 -113t276 113
q74 74 93 176q20 102 20 354zM1167 729q1 -276 -21 -388t-114 -204q-150 -149 -364 -149t-365 149q-92 92 -114 204t-21 388q0 276 21 388q22 112 114 204q150 149 365 149t364 -149q92 -92 114 -204t21 -388z" />
    <glyph glyph-name="Odieresis" unicode="&#xd6;" horiz-adv-x="1335" 
d="M514 1618h-119v158h119v-158zM940 1618h-119v158h119v-158zM1057 729q0 252 -20 354q-19 102 -93 177q-112 112 -276 112t-277 -112q-74 -74 -93 -176t-19 -355q0 -252 19 -354t93 -176q113 -113 277 -113t276 113q74 74 93 176q20 102 20 354zM1167 729q1 -276 -21 -388
t-114 -204q-150 -149 -364 -149t-365 149q-92 92 -114 204t-21 388q0 276 21 388q22 112 114 204q150 149 365 149t364 -149q92 -92 114 -204t21 -388z" />
    <glyph glyph-name="multiply" unicode="&#xd7;" 
d="M907 223l-63 -63l-318 317l-317 -317l-64 63l318 318l-318 317l64 64l317 -318l318 318l63 -64l-317 -317z" />
    <glyph glyph-name="Oslash" unicode="&#xd8;" horiz-adv-x="1335" 
d="M279 736q0 -245 15 -344t77 -171l518 1084q-94 68 -221 67q-164 0 -277 -112q-74 -74 -93 -176t-19 -348zM1057 722q0 245 -16 344q-15 99 -76 171l-519 -1083q94 -68 222 -68q164 0 276 113q74 74 93 176q20 102 20 347zM1167 729q1 -276 -21 -388t-114 -204
q-150 -150 -364 -149q-145 0 -267 71l-71 -149h-109l101 209l-19 18q-92 92 -114 204t-21 388q0 276 21 388q22 112 114 204q150 150 365 149q145 0 266 -71l72 149h108l-100 -209l18 -18q92 -92 114 -204t21 -388z" />
    <glyph glyph-name="Ugrave" unicode="&#xd9;" horiz-adv-x="1406" 
d="M801 1597h-119l-217 301h137zM1204 473q0 -213 -140 -349t-359 -136t-360 136q-140 136 -140 349v985h110v-971q1 -181 107 -291t282 -110t283 111q106 111 107 290v971h110v-985z" />
    <glyph glyph-name="Uacute" unicode="&#xda;" horiz-adv-x="1406" 
d="M944 1898l-217 -301h-119l199 301h137zM1204 473q0 -213 -140 -349t-359 -136t-360 136q-140 136 -140 349v985h110v-971q1 -181 107 -291t282 -110t283 111q106 111 107 290v971h110v-985z" />
    <glyph glyph-name="Ucircumflex" unicode="&#xdb;" horiz-adv-x="1406" 
d="M1012 1597h-117l-190 224l-191 -224h-117l252 301h111zM1204 473q0 -213 -140 -349t-359 -136t-360 136q-140 136 -140 349v985h110v-971q1 -181 107 -291t282 -110t283 111q106 111 107 290v971h110v-985z" />
    <glyph glyph-name="Udieresis" unicode="&#xdc;" horiz-adv-x="1406" 
d="M551 1618h-119v158h119v-158zM977 1618h-119v158h119v-158zM1204 473q0 -213 -140 -349t-359 -136t-360 136q-140 136 -140 349v985h110v-971q1 -181 107 -291t282 -110t283 111q106 111 107 290v971h110v-985z" />
    <glyph glyph-name="Yacute" unicode="&#xdd;" horiz-adv-x="1011" 
d="M745 1898l-217 -301h-118l198 301h137zM561 0h-110v604l-431 854h119l371 -737l362 737h119l-430 -854v-604z" />
    <glyph glyph-name="Thorn" unicode="&#xde;" horiz-adv-x="1323" 
d="M1090 735q0 160 -94 241t-248 81h-412v-643h412q156 0 249 80t93 241zM1200 735q0 -195 -123 -307t-317 -113h-424v-315h-111v1458h111v-303h424q196 -1 318 -113t122 -307z" />
    <glyph glyph-name="germandbls" unicode="&#xdf;" horiz-adv-x="1126" 
d="M969 274q0 -130 -79 -202t-196 -72h-110v92h90q76 0 133 45t57 150v366q0 95 -47 141t-133 46h-100v92h80q90 0 145 57t55 159t-70 168t-212 64q-143 0 -211 -82t-68 -223v-1075h-104v1075q0 185 104 291q105 106 279 106t279 -83q105 -84 105 -248t-128 -250
q78 -41 104 -96t27 -158v-363z" />
    <glyph glyph-name="agrave" unicode="&#xe0;" horiz-adv-x="1073" 
d="M606 1208h-119l-217 301h138zM778 344v127h-307q-252 0 -252 -199q1 -98 63 -145t212 -47t229 76q55 53 55 188zM778 666q0 241 -256 241q-126 -1 -186 -29t-109 -96l-75 66q61 84 142 118t206 33q383 0 383 -323v-676h-105v98q-61 -61 -128 -86t-173 -24q-203 0 -283 83
t-80 209t92 200q91 75 253 75h319v111z" />
    <glyph glyph-name="aacute" unicode="&#xe1;" horiz-adv-x="1073" 
d="M750 1509l-218 -301h-118l198 301h138zM778 344v127h-307q-252 0 -252 -199q1 -98 63 -145t212 -47t229 76q55 53 55 188zM778 666q0 241 -256 241q-126 -1 -186 -29t-109 -96l-75 66q61 84 142 118t206 33q383 0 383 -323v-676h-105v98q-61 -61 -128 -86t-173 -24
q-203 0 -283 83t-80 209t92 200q91 75 253 75h319v111z" />
    <glyph glyph-name="acircumflex" unicode="&#xe2;" horiz-adv-x="1073" 
d="M817 1208h-117l-190 224l-191 -224h-116l252 301h110zM778 344v127h-307q-252 0 -252 -199q1 -98 63 -145t212 -47t229 76q55 53 55 188zM778 666q0 241 -256 241q-126 -1 -186 -29t-109 -96l-75 66q61 84 142 118t206 33q383 0 383 -323v-676h-105v98q-61 -61 -128 -86
t-173 -24q-203 0 -283 83t-80 209t92 200q91 75 253 75h319v111z" />
    <glyph glyph-name="atilde" unicode="&#xe3;" horiz-adv-x="1073" 
d="M633 1239q-57 0 -136 46t-126 46t-115 -67l-61 59q97 98 171 98t148 -46t123 -46t117 68l61 -60q-98 -98 -182 -98zM778 344v127h-307q-252 0 -252 -199q1 -98 63 -145t212 -47t229 76q55 53 55 188zM778 666q0 241 -256 241q-126 -1 -186 -29t-109 -96l-75 66
q61 84 142 118t206 33q383 0 383 -323v-676h-105v98q-61 -61 -128 -86t-173 -24q-203 0 -283 83t-80 209t92 200q91 75 253 75h319v111z" />
    <glyph glyph-name="adieresis" unicode="&#xe4;" horiz-adv-x="1073" 
d="M356 1229h-118v157h118v-157zM782 1229h-118v157h118v-157zM778 344v127h-307q-252 0 -252 -199q1 -98 63 -145t212 -47t229 76q55 53 55 188zM778 666q0 241 -256 241q-126 -1 -186 -29t-109 -96l-75 66q61 84 142 118t206 33q383 0 383 -323v-676h-105v98
q-61 -61 -128 -86t-173 -24q-203 0 -283 83t-80 209t92 200q91 75 253 75h319v111z" />
    <glyph glyph-name="aring" unicode="&#xe5;" horiz-adv-x="1073" 
d="M659 1386q0 60 -44 104t-105 44q-62 0 -106 -43t-44 -105t44 -105q44 -44 106 -44t105 44q44 44 44 105zM743 1386q-1 -96 -69 -166t-164 -69q-96 0 -165 70q-69 69 -69 165t69 165t165 69t164 -69t69 -165zM778 344v127h-307q-252 0 -252 -199q1 -98 63 -145t212 -47
t229 76q55 53 55 188zM778 666q0 241 -256 241q-126 -1 -186 -29t-109 -96l-75 66q61 84 142 118t206 33q383 0 383 -323v-676h-105v98q-61 -61 -128 -86t-173 -24q-203 0 -283 83t-80 209t92 200q91 75 253 75h319v111z" />
    <glyph glyph-name="ae" unicode="&#xe6;" horiz-adv-x="1708" 
d="M778 344v127h-307q-252 0 -252 -199q1 -98 63 -145t212 -47t229 76q55 53 55 188zM1174 907q-84 0 -154 -45q-129 -83 -137 -307h581q-4 111 -36 187t-101 120q-69 45 -153 45zM778 666q0 241 -256 241q-126 -1 -186 -29t-109 -96l-75 66q61 84 142 118t206 33
q279 0 354 -174q104 174 320 174q184 0 289 -128t106 -353v-47h-686q0 -189 83 -289t238 -100q86 0 148 28t125 91l77 -62q-80 -79 -160 -115t-198 -36q-250 0 -352 184q-62 -100 -146 -142t-221 -42q-203 0 -283 83t-80 209t92 200q91 75 253 75h319v111z" />
    <glyph glyph-name="ccedilla" unicode="&#xe7;" horiz-adv-x="1019" 
d="M631 -143l-131 -308h-129l147 308h113zM141 494q0 236 117 370t317 135q101 -1 175 -33t151 -118l-72 -66q-63 70 -118 98t-136 27q-172 0 -262 -131q-67 -98 -67 -282t67 -283q90 -131 262 -131q79 0 135 28t119 97l72 -66q-79 -86 -151 -119t-175 -32q-201 0 -317 135
t-117 371z" />
    <glyph glyph-name="egrave" unicode="&#xe8;" horiz-adv-x="1071" 
d="M637 1208h-119l-217 301h137zM536 907q-84 0 -153 -45q-129 -83 -137 -307h581q-3 111 -35 187t-102 120q-70 45 -154 45zM932 471h-686q0 -189 83 -289t238 -100q85 0 147 28t126 91l78 -62q-80 -79 -160 -115t-197 -36q-205 0 -313 129t-107 372t105 377t290 133
q186 0 290 -128q105 -128 106 -353v-47z" />
    <glyph glyph-name="eacute" unicode="&#xe9;" horiz-adv-x="1071" 
d="M780 1509l-217 -301h-119l199 301h137zM536 907q-84 0 -153 -45q-129 -83 -137 -307h581q-3 111 -35 187t-102 120q-70 45 -154 45zM932 471h-686q0 -189 83 -289t238 -100q85 0 147 28t126 91l78 -62q-80 -79 -160 -115t-197 -36q-205 0 -313 129t-107 372t105 377
t290 133q186 0 290 -128q105 -128 106 -353v-47z" />
    <glyph glyph-name="ecircumflex" unicode="&#xea;" horiz-adv-x="1071" 
d="M848 1208h-117l-190 224l-191 -224h-117l252 301h111zM536 907q-84 0 -153 -45q-129 -83 -137 -307h581q-3 111 -35 187t-102 120q-70 45 -154 45zM932 471h-686q0 -189 83 -289t238 -100q85 0 147 28t126 91l78 -62q-80 -79 -160 -115t-197 -36q-205 0 -313 129
t-107 372t105 377t290 133q186 0 290 -128q105 -128 106 -353v-47z" />
    <glyph glyph-name="edieresis" unicode="&#xeb;" horiz-adv-x="1071" 
d="M387 1229h-119v157h119v-157zM813 1229h-119v157h119v-157zM536 907q-84 0 -153 -45q-129 -83 -137 -307h581q-3 111 -35 187t-102 120q-70 45 -154 45zM932 471h-686q0 -189 83 -289t238 -100q85 0 147 28t126 91l78 -62q-80 -79 -160 -115t-197 -36q-205 0 -313 129
t-107 372t105 377t290 133q186 0 290 -128q105 -128 106 -353v-47z" />
    <glyph glyph-name="igrave" unicode="&#xec;" horiz-adv-x="501" 
d="M535 1208h-119l-217 301h137zM303 0h-104v987h104v-987z" />
    <glyph glyph-name="iacute" unicode="&#xed;" horiz-adv-x="501" 
d="M535 1509l-218 -301h-118l198 301h138zM303 0h-104v987h104v-987z" />
    <glyph glyph-name="icircumflex" unicode="&#xee;" horiz-adv-x="501" 
d="M813 1208h-117l-190 224l-191 -224h-116l252 301h110zM303 0h-104v987h104v-987z" />
    <glyph glyph-name="idieresis" unicode="&#xef;" horiz-adv-x="501" 
d="M317 1229h-118v157h118v-157zM743 1229h-118v157h118v-157zM303 0h-104v987h104v-987z" />
    <glyph glyph-name="eth" unicode="&#xf0;" horiz-adv-x="1077" 
d="M831 494q0 242 -86 328q-87 86 -207 85q-120 0 -206 -86q-86 -85 -86 -327t86 -328t207 -86t207 86t85 328zM936 494q0 -274 -116 -390t-282 -116t-281 116q-116 116 -116 390t116 390t282 115q96 0 153 -34l-137 231h-240v78h195l-109 184h109l106 -184h162v-78h-116
l147 -252q79 -137 103 -226t24 -224z" />
    <glyph glyph-name="ntilde" unicode="&#xf1;" horiz-adv-x="1144" 
d="M705 1239q-57 0 -137 46t-126 46t-114 -67l-62 59q98 98 172 98t148 -46t123 -46t116 68l62 -60q-98 -98 -182 -98zM958 0h-104v612q0 143 -71 219t-201 76t-205 -78q-74 -78 -74 -217v-612h-104v987h104v-117q111 129 283 129t272 -96t100 -272v-631z" />
    <glyph glyph-name="ograve" unicode="&#xf2;" horiz-adv-x="1077" 
d="M963 494q-1 242 -87 328t-206 85q-120 0 -207 -86q-86 -85 -86 -327t86 -328t207 -86t207 86t86 328zM1067 494q0 -274 -116 -390q-115 -116 -281 -116t-282 116t-116 390t116 390t282 116t282 -116t115 -390zM608 1208h-119l-217 301h138z" />
    <glyph glyph-name="oacute" unicode="&#xf3;" horiz-adv-x="1077" 
d="M778 1509l-217 -301h-119l199 301h137zM831 494q0 242 -86 328q-87 86 -207 85q-120 0 -206 -86q-86 -85 -86 -327t86 -328t207 -86t207 86t85 328zM936 494q0 -274 -116 -390t-282 -116t-281 116q-116 116 -116 390t116 390t282 116q165 0 281 -116t116 -390z" />
    <glyph glyph-name="ocircumflex" unicode="&#xf4;" horiz-adv-x="1077" 
d="M846 1208h-117l-190 224l-191 -224h-117l252 301h111zM831 494q0 242 -86 328q-87 86 -207 85q-120 0 -206 -86q-86 -85 -86 -327t86 -328t207 -86t207 86t85 328zM936 494q0 -274 -116 -390t-282 -116t-281 116q-116 116 -116 390t116 390t282 116q165 0 281 -116
t116 -390z" />
    <glyph glyph-name="otilde" unicode="&#xf5;" horiz-adv-x="1077" 
d="M662 1239q-56 0 -136 46t-126 46t-115 -67l-62 59q98 98 172 98t148 -46t123 -46t116 68l62 -60q-98 -98 -182 -98zM831 494q0 242 -86 328q-87 86 -207 85q-120 0 -206 -86q-86 -85 -86 -327t86 -328t207 -86t207 86t85 328zM936 494q0 -274 -116 -390t-282 -116
t-281 116q-116 116 -116 390t116 390t282 116q165 0 281 -116t116 -390z" />
    <glyph glyph-name="odieresis" unicode="&#xf6;" horiz-adv-x="1077" 
d="M385 1229h-119v157h119v-157zM811 1229h-119v157h119v-157zM831 494q0 242 -86 328q-87 86 -207 85q-120 0 -206 -86q-86 -85 -86 -327t86 -328t207 -86t207 86t85 328zM936 494q0 -274 -116 -390t-282 -116t-281 116q-116 116 -116 390t116 390t282 116q165 0 281 -116
t116 -390z" />
    <glyph glyph-name="divide" unicode="&#xf7;" 
d="M598 123h-143v143h143v-143zM944 492h-835v96h835v-96zM598 813h-143v143h143v-143z" />
    <glyph glyph-name="oslash" unicode="&#xf8;" horiz-adv-x="1077" 
d="M524 907q-106 0 -192 -86t-86 -313t65 -318l394 666q-75 51 -181 51zM554 80q106 0 192 86t85 314q0 228 -65 317l-393 -666q75 -51 181 -51zM936 490q0 -270 -116 -386t-281 -116q-121 0 -215 59l-82 -137h-99l115 192q-117 126 -117 396t116 386t282 115q123 0 215 -61
l82 139h98l-115 -192q117 -125 117 -395z" />
    <glyph glyph-name="ugrave" unicode="&#xf9;" horiz-adv-x="1144" 
d="M662 1208h-119l-217 301h137zM946 0h-104v117q-111 -129 -283 -129t-272 96t-101 272v631h105v-612q1 -143 71 -219t201 -76t205 78t74 217v612h104v-987z" />
    <glyph glyph-name="uacute" unicode="&#xfa;" horiz-adv-x="1144" 
d="M805 1509l-217 -301h-119l199 301h137zM946 0h-104v117q-111 -129 -283 -129t-272 96t-101 272v631h105v-612q1 -143 71 -219t201 -76t205 78t74 217v612h104v-987z" />
    <glyph glyph-name="ucircumflex" unicode="&#xfb;" horiz-adv-x="1144" 
d="M872 1208h-116l-191 224l-190 -224h-117l252 301h111zM946 0h-104v117q-111 -129 -283 -129t-272 96t-101 272v631h105v-612q1 -143 71 -219t201 -76t205 78t74 217v612h104v-987z" />
    <glyph glyph-name="udieresis" unicode="&#xfc;" horiz-adv-x="1144" 
d="M412 1229h-119v157h119v-157zM838 1229h-119v157h119v-157zM946 0h-104v117q-111 -129 -283 -129t-272 96t-101 272v631h105v-612q1 -143 71 -219t201 -76t205 78t74 217v612h104v-987z" />
    <glyph glyph-name="yacute" unicode="&#xfd;" horiz-adv-x="880" 
d="M680 1509l-217 -301h-119l199 301h137zM139 -446h-49v92h39q80 0 116 28t64 107l80 219l-360 987h114l297 -864l297 864h115l-459 -1255q-29 -80 -67 -115q-66 -63 -187 -63z" />
    <glyph glyph-name="thorn" unicode="&#xfe;" horiz-adv-x="1105" 
d="M860 494q0 88 -10 154t-38 128q-28 63 -86 97t-144 34q-173 0 -231 -131q-48 -108 -48 -282q0 -301 134 -380q59 -34 145 -34t144 34t86 97t38 129t10 154zM596 999q369 0 369 -505q0 -293 -127 -420q-86 -86 -242 -86q-188 0 -293 139v-598h-104v1929h104v-598
q104 139 293 139z" />
    <glyph glyph-name="ydieresis" unicode="&#xff;" horiz-adv-x="880" 
d="M287 1229h-119v157h119v-157zM713 1229h-119v157h119v-157zM139 -446h-49v92h39q80 0 116 28t64 107l80 219l-360 987h114l297 -864l297 864h115l-459 -1255q-29 -80 -67 -115q-66 -63 -187 -63z" />
    <glyph glyph-name="dotlessi" unicode="&#x131;" horiz-adv-x="501" 
d="M303 0h-104v987h104v-987z" />
    <glyph glyph-name="Lslash" unicode="&#x141;" horiz-adv-x="1183" 
d="M1122 0h-884v627l-156 -99v99l156 98v733h110v-663l336 213v-99l-336 -213v-598h774v-98z" />
    <glyph glyph-name="lslash" unicode="&#x142;" horiz-adv-x="630" 
d="M545 0h-90q-117 0 -177 69t-61 187v473l-135 -84v92l135 84v637h105v-571l180 112v-92l-180 -112v-537q0 -86 34 -126t117 -40h72v-92z" />
    <glyph glyph-name="OE" unicode="&#x152;" horiz-adv-x="2041" 
d="M1057 729q0 252 -20 354q-19 102 -93 177q-112 112 -276 112t-277 -112q-74 -74 -93 -176t-19 -355q0 -252 19 -354t93 -176q113 -113 277 -113t276 113q74 74 93 176q20 102 20 354zM1927 96v-96h-870v174q-150 -186 -377 -186t-377 149q-92 92 -114 204t-21 388
q0 276 21 388q22 112 114 204q149 149 377 149t377 -186v174h864v-96h-756l2 -584h641v-86h-641l-2 -596h762z" />
    <glyph glyph-name="oe" unicode="&#x153;" horiz-adv-x="1761" 
d="M831 494q0 242 -86 328q-87 86 -207 85q-120 0 -206 -86q-86 -85 -86 -327t86 -328t207 -86t207 86t85 328zM1226 907q-84 0 -153 -45q-129 -83 -137 -307h582q-8 223 -138 307q-70 45 -154 45zM1622 471h-686q0 -189 83 -289t238 -100q85 0 147 28t126 91l78 -62
q-80 -79 -160 -115t-197 -36q-264 0 -364 215q-47 -103 -141 -159t-207 -56q-166 0 -282 116t-116 390t116 390t282 115q117 0 209 -56t139 -159q100 215 340 215q183 0 289 -128t106 -353v-47z" />
    <glyph glyph-name="Scaron" unicode="&#x160;" horiz-adv-x="1202" 
d="M895 1898l-252 -301h-111l-251 301h116l191 -223l190 223h117zM1081 388q0 -181 -132 -291t-359 -109q-160 0 -272 45t-214 147l78 78q96 -96 188 -134t246 -38t254 80t100 217t-79 209q-39 33 -80 48t-131 30l-170 26q-166 25 -260 107q-115 96 -115 273t122 286
t331 108q131 0 227 -36t193 -121l-72 -72q-76 67 -155 101t-218 34t-229 -81t-90 -214t80 -199t213 -87l157 -25q176 -27 260 -96q127 -105 127 -286z" />
    <glyph glyph-name="scaron" unicode="&#x161;" horiz-adv-x="1011" 
d="M807 1509l-252 -301h-111l-251 301h116l191 -223l190 223h117zM897 280q0 -134 -106 -213t-289 -79q-252 0 -400 141l72 72q115 -121 324 -121q297 0 297 201q0 75 -46 115t-143 50l-164 15q-297 25 -297 258q1 127 97 204t258 76q209 0 346 -104l-70 -70
q-115 84 -256 84t-207 -50q-65 -50 -65 -134t48 -124t153 -48l159 -14q139 -13 214 -69t75 -190z" />
    <glyph glyph-name="Ydieresis" unicode="&#x178;" horiz-adv-x="1011" 
d="M352 1618h-119v158h119v-158zM778 1618h-119v158h119v-158zM561 0h-110v604l-431 854h119l371 -737l362 737h119l-430 -854v-604z" />
    <glyph glyph-name="Zcaron" unicode="&#x17d;" horiz-adv-x="1144" 
d="M895 1898l-252 -301h-111l-251 301h116l191 -223l190 223h117zM1016 0h-887v117l768 1243h-737v98h856v-98l-774 -1262h774v-98z" />
    <glyph glyph-name="zcaron" unicode="&#x17e;" horiz-adv-x="925" 
d="M786 1509l-251 -301h-111l-252 301h117l190 -223l191 223h116zM815 0h-704v98l594 797h-562v92h672v-98l-596 -797h596v-92z" />
    <glyph glyph-name="florin" unicode="&#x192;" horiz-adv-x="806" 
d="M745 1366h-88q-152 0 -180 -164l-74 -424h224v-78h-238l-207 -1171h-104l207 1171h-224v78h238l74 422q20 117 95 188t187 70h90v-92z" />
    <glyph glyph-name="circumflex" unicode="&#x2c6;" horiz-adv-x="1024" 
d="M819 1208h-117l-190 224l-190 -224h-117l252 301h110z" />
    <glyph glyph-name="caron" unicode="&#x2c7;" horiz-adv-x="1024" 
d="M819 1509l-252 -301h-110l-252 301h117l190 -223l190 223h117z" />
    <glyph glyph-name="breve" unicode="&#x2d8;" horiz-adv-x="1024" 
d="M516 1294q104 0 169 49t77 136h88q-29 -277 -338 -277t-338 277h96q12 -85 77 -135t169 -50z" />
    <glyph glyph-name="dotaccent" unicode="&#x2d9;" horiz-adv-x="1024" 
d="M575 1317h-126v129h126v-129z" />
    <glyph glyph-name="ring" unicode="&#x2da;" horiz-adv-x="1024" 
d="M662 1386q0 60 -44 104t-106 44q-61 0 -105 -43q-45 -43 -45 -105t44 -105q44 -44 106 -44t106 44t44 105zM745 1386q-1 -96 -69 -166t-164 -69q-96 0 -165 70q-69 69 -69 165t69 165t165 69t164 -69t69 -165z" />
    <glyph glyph-name="ogonek" unicode="&#x2db;" horiz-adv-x="1024" 
d="M653 -451h-129l-131 308h113z" />
    <glyph glyph-name="tilde" unicode="&#x2dc;" horiz-adv-x="1024" 
d="M635 1239q-57 0 -136 46t-126 46t-115 -67l-61 59q97 98 171 98t148 -46t123 -46t117 68l61 -60q-98 -98 -182 -98z" />
    <glyph glyph-name="hungarumlaut" unicode="&#x2dd;" horiz-adv-x="1024" 
d="M602 1509l-217 -301h-119l199 301h137zM903 1509l-219 -301h-117l199 301h137z" />
    <glyph glyph-name="Delta" unicode="&#x394;" horiz-adv-x="1210" 
d="M1047 98l-443 1213l-440 -1213h883zM1190 0h-1170l537 1458h96z" />
    <glyph glyph-name="Omega" unicode="&#x3a9;" horiz-adv-x="1335" 
d="M1167 0h-381v96q150 72 215 180q35 58 45 160t11 324q0 222 -20 323q-19 102 -93 177q-112 112 -276 112t-277 -112q-74 -74 -93 -176t-19 -324t10 -324t45 -160q66 -109 215 -180v-96h-381v96h186q-112 88 -143 180t-35 157t-6 81t-2 54v161q0 276 21 388
q22 112 114 204q150 149 365 149t364 -149q92 -92 114 -204t21 -388v-161q0 -38 -2 -54t-4 -50q-8 -137 -51 -218q-43 -82 -129 -150h186v-96z" />
    <glyph glyph-name="pi" unicode="&#x3c0;" horiz-adv-x="1210" 
d="M985 0h-98v895h-563v-895h-99v987h760v-987z" />
    <glyph glyph-name="endash" unicode="&#x2013;" 
d="M944 492h-835v96h835v-96z" />
    <glyph glyph-name="emdash" unicode="&#x2014;" horiz-adv-x="1787" 
d="M1620 492h-1452v96h1452v-96z" />
    <glyph glyph-name="quoteleft" unicode="&#x2018;" horiz-adv-x="532" 
d="M338 1315h-143v143l143 144v-287z" />
    <glyph glyph-name="quoteright" unicode="&#x2019;" horiz-adv-x="532" 
d="M195 1458h143v-143l-143 -144v287z" />
    <glyph glyph-name="quotesinglbase" unicode="&#x201a;" horiz-adv-x="532" 
d="M195 143h143v-143l-143 -143v286z" />
    <glyph glyph-name="quotedblleft" unicode="&#x201c;" horiz-adv-x="851" 
d="M338 1315h-143v143l143 144v-287zM657 1315h-143v143l143 144v-287z" />
    <glyph glyph-name="quotedblright" unicode="&#x201d;" horiz-adv-x="851" 
d="M195 1458h143v-143l-143 -144v287zM514 1458h143v-143l-143 -144v287z" />
    <glyph glyph-name="quotedblbase" unicode="&#x201e;" horiz-adv-x="851" 
d="M195 143h143v-143l-143 -143v286zM514 143h143v-143l-143 -143v286z" />
    <glyph glyph-name="dagger" unicode="&#x2020;" horiz-adv-x="1257" 
d="M1094 936h-416v-936h-105v936h-409v92h409v430h105v-430h416v-92z" />
    <glyph glyph-name="daggerdbl" unicode="&#x2021;" horiz-adv-x="1257" 
d="M1094 -41h-416v-430h-105v430h-409v92h409v885h-409v92h409v430h105v-430h416v-92h-416v-885h416v-92z" />
    <glyph glyph-name="bullet" unicode="&#x2022;" horiz-adv-x="1118" 
d="M893 684q0 -138 -98 -236q-97 -98 -235 -98t-236 97t-98 237t98 236q98 98 235 98t236 -97q98 -98 98 -237z" />
    <glyph glyph-name="ellipsis" unicode="&#x2026;" horiz-adv-x="1482" 
d="M346 0h-151v152h151v-152zM817 0h-151v152h151v-152zM1288 0h-151v152h151v-152z" />
    <glyph glyph-name="perthousand" unicode="&#x2030;" horiz-adv-x="2392" 
d="M590 983v211q0 201 -179 201t-180 -201v-211q-1 -199 179 -199t180 199zM1464 264v211q0 201 -179 201t-179 -201v-211q0 -201 179 -201t179 201zM2161 262v213q1 201 -179 201t-180 -201v-211q0 -201 180 -201t179 199zM680 979q0 -121 -75 -197t-193 -76t-195 76
q-76 76 -76 197v219q0 121 76 198t195 77q120 0 194 -77t74 -198v-219zM1235 1458l-680 -1458h-92l680 1458h92zM1554 260q0 -121 -74 -198q-74 -76 -194 -76q-118 0 -194 76t-76 198v219q0 121 76 198t194 77t194 -77q75 -77 74 -198v-219zM2251 260q0 -121 -75 -198
q-75 -76 -194 -76q-118 0 -194 76t-76 198v219q0 121 76 198t194 77t194 -77q75 -77 75 -198v-219z" />
    <glyph glyph-name="guilsinglleft" unicode="&#x2039;" horiz-adv-x="655" 
d="M487 141l-401 402l401 401v-135l-266 -266l266 -267v-135z" />
    <glyph glyph-name="guilsinglright" unicode="&#x203a;" horiz-adv-x="655" 
d="M569 543l-401 -402v135l266 267l-266 266v135z" />
    <glyph glyph-name="fraction" unicode="&#x2044;" horiz-adv-x="362" 
d="M567 1458l-680 -1458h-92l680 1458h92z" />
    <glyph glyph-name="trademark" unicode="&#x2122;" horiz-adv-x="1656" 
d="M655 1374h-249v-790h-91v790h-249v84h589v-84zM1542 584h-90v671l-225 -446h-94l-226 446v-671h-90v874h90l273 -553l272 553h90v-874z" />
    <glyph glyph-name="partialdiff" unicode="&#x2202;" horiz-adv-x="1105" 
d="M803 494q0 242 -82 328t-197 85q-114 0 -196 -86q-82 -85 -82 -327t82 -328t196 -86t197 86q82 86 82 328zM907 494q1 -274 -111 -390t-272 -116t-272 116t-111 395q0 280 119 398q102 102 250 102q188 0 293 -139v176q0 154 -75 248t-224 94q-86 0 -138 -24t-118 -84
l-68 67q84 74 152 104t172 29q190 0 297 -116q106 -117 106 -312v-548z" />
    <glyph glyph-name="product" unicode="&#x220f;" horiz-adv-x="1431" 
d="M1206 -471h-110v1929h-760v-1929h-111v2027h981v-2027z" />
    <glyph glyph-name="summation" unicode="&#x2211;" horiz-adv-x="1128" 
d="M1014 -471h-885v98l424 944l-424 887v98h885v-98h-760l399 -837v-99l-399 -895h760v-98z" />
    <glyph glyph-name="minus" unicode="&#x2212;" 
d="M944 492h-835v96h835v-96z" />
    <glyph glyph-name="radical" unicode="&#x221a;" horiz-adv-x="1126" 
d="M1065 1360h-180l-445 -1360h-94l-326 987h115l258 -792l408 1263h264v-98z" />
    <glyph glyph-name="infinity" unicode="&#x221e;" horiz-adv-x="1622" 
d="M246 532q0 -94 58 -151t144 -57t148 48t154 160q-94 115 -156 165q-62 51 -146 51q-86 0 -144 -60q-58 -62 -58 -156zM1376 532q0 94 -58 152t-144 59q-86 0 -147 -49q-62 -49 -155 -162q92 -112 154 -160t148 -48q85 0 144 57q58 57 58 151zM1475 532q0 -131 -85 -217
q-84 -86 -202 -86q-118 1 -200 51t-177 171q-96 -121 -178 -172q-81 -51 -197 -51t-203 86q-86 87 -86 218q0 132 86 220t201 88t198 -52t179 -174q98 123 178 174q80 52 198 52t203 -88t85 -220z" />
    <glyph glyph-name="integral" unicode="&#x222b;" horiz-adv-x="673" 
d="M612 1366h-71q-152 0 -152 -164v-1415q0 -117 -62 -187t-175 -71h-91v92h72q152 0 152 164v1415q0 117 62 188t175 70h90v-92z" />
    <glyph glyph-name="approxequal" unicode="&#x2248;" 
d="M710 276q-60 0 -192 56t-176 55q-45 0 -78 -16t-92 -76l-63 63q80 80 127 104t107 24q59 0 191 -56q132 -55 177 -55t77 16t93 76l63 -64q-80 -79 -127 -103t-107 -24zM710 604q-60 0 -192 56t-176 55q-45 -1 -78 -17t-92 -75l-63 63q80 80 127 104t107 24q59 0 191 -56
t177 -56t77 16t93 77l63 -64q-80 -79 -127 -103t-107 -24z" />
    <glyph glyph-name="notequal" unicode="&#x2260;" 
d="M944 334h-555l-213 -213l-67 67l145 146h-145v96h241l217 217h-458v96h555l213 213l67 -67l-145 -146h145v-96h-242l-217 -217h459v-96z" />
    <glyph glyph-name="lessequal" unicode="&#x2264;" horiz-adv-x="2103" 
d="M391 1200h1170l100 -100h-1098l1186 -1186l-72 -72l-1188 1186v-1098l-98 99v1171z" />
    <glyph glyph-name="greaterequal" unicode="&#x2265;" horiz-adv-x="2103" 
d="M1712 1200v-1171l-98 -99v1098l-1188 -1186l-72 72l1186 1186h-1098l101 100h1169z" />
    <glyph glyph-name="lozenge" unicode="&#x25ca;" horiz-adv-x="1339" 
d="M1075 729l-405 584l-406 -584l406 -588zM1192 729l-522 -743l-523 743l523 744z" />
    <glyph glyph-name="fi" unicode="&#xfb01;" horiz-adv-x="1120" 
d="M557 909h-223v-909h-105v909h-135v78h135v213q1 117 63 188t175 70h90v-92h-72q-152 0 -151 -164v-215h223v-78zM922 0h-105v987h105v-987zM934 1329h-129v129h129v-129z" />
    <glyph glyph-name="fl" unicode="&#xfb02;" horiz-adv-x="1200" 
d="M557 909h-223v-909h-105v909h-135v78h135v213q1 117 63 188t175 70h90v-92h-72q-152 0 -151 -164v-215h223v-78zM1135 0h-91q-117 0 -177 69t-60 187v1202h104v-1200q0 -86 34 -126t118 -40h72v-92z" />
    </font>
</defs>
</svg>
